# xmcd
#
# Track frame offsets:
#	150
#	7047
#	27056
#	40090
#	63255
#	88781
#	101758
#	122929
#	141856
#	161073
#	169992
#	181311
#	200395
#	214367
#	231938
#	255902
#	279682
#	297981
#	314504
#	344306
#
# Disc length: 4753 seconds
#
# Revision: 3
# Processed by: cddbd v1.5.2PL0 Copyright (c) Steve Scherf et al.
# Submitted via: audiograbber 1.83.01
#
DISCID=2e128f14
DTITLE=Various Artist - House Of The Rising Sun
DYEAR=1964
DGENRE=Blues
TTITLE0=Georgia Turner - House Of The Rising Sun
TTITLE1=The Animals - House Of The Rising Sun
TTITLE2=Woody Guthrie - House Of The Rising Sun
TTITLE3=Santa Esmeralda - House Of The Rising Sun
TTITLE4=Bachman-Turner Overdrive - House Of The Rising Sun
TTITLE5=Joan Baez - House Of The Rising Sun
TTITLE6=Frijid Pink - House Of The Rising Sun
TTITLE7=Gerry and The Pacemakers - House Of The Rising Sun
TTITLE8=Jimi Hendrix - House Of The Rising Sun
TTITLE9=Miriam Makeba - House Of The Rising Sun
TTITLE10=Pete Seeger - House Of The Rising Sun
TTITLE11=Marianne Faithful - House Of The Rising Sun
TTITLE12=Henry Mancini and His Orchestra - House Of The Rising Sun
TTITLE13=Marie Laforet - House Of The Rising Sun
TTITLE14=Alan Price - House Of The Rising Sun
TTITLE15=Bob Dylan - House Of The Rising Sun
TTITLE16=Johnny Halliday - House Of The Rising Sun [Frz. gesungen]
TTITLE17=Tim Hardin - House Of The Rising Sun
TTITLE18=Nina Simone - House Of The Rising Sun
TTITLE19=Duane Eddy - House Of The Rising Sun
EXTD=
EXTT0=1937
EXTT1=
EXTT2=
EXTT3=
EXTT4=
EXTT5=
EXTT6=
EXTT7=
EXTT8=
EXTT9=
EXTT10=
EXTT11=
EXTT12=
EXTT13=
EXTT14=
EXTT15=
EXTT16=
EXTT17=
EXTT18=
EXTT19=
PLAYORDER=
